<?xml version="1.0" encoding="UTF-8"?>
<svg xmlns="http://www.w3.org/2000/svg" viewBox="0 0 1520 440" role="img" aria-labelledby="title desc">
<title id="title">VERDEA — lockup horizontal oficial</title>
<desc id="desc">Isotipo de cuatro hojas junto al wordmark VERDEA y el descriptor Lleva verde a tu vida.</desc>
<g transform="translate(35 20) scale(0.40)">
<path fill="#FECD66" d="M 229.67 164.27 L 226.48 167.46 L 224.08 189.00 L 224.88 214.51 L 229.67 243.22 L 235.25 262.36 L 242.42 279.90 L 252.79 299.84 L 265.55 318.98 L 276.71 332.54 L 295.06 350.88 L 311.00 363.64 L 335.73 378.79 L 386.76 402.71 L 420.26 425.04 L 431.42 434.61 L 450.56 454.55 L 464.11 472.09 L 477.67 493.62 L 479.27 476.87 L 480.86 476.08 L 480.06 468.90 L 484.05 420.26 L 482.46 388.36 L 478.47 365.23 L 470.49 336.52 L 459.33 309.41 L 446.57 285.49 L 429.03 259.97 L 417.07 245.61 L 390.75 220.10 L 362.04 199.36 L 340.51 187.40 L 315.79 177.03 L 287.88 169.06 L 257.58 164.27 Z"/>
<path fill="#32884A" d="M 770.33 163.48 L 751.20 163.48 L 710.53 169.86 L 679.43 179.43 L 654.70 190.59 L 637.96 200.16 L 620.41 212.92 L 608.45 222.49 L 584.53 245.61 L 563.00 273.52 L 552.63 290.27 L 539.07 318.98 L 526.32 362.84 L 523.13 389.15 L 522.33 531.10 L 532.70 513.56 L 544.66 495.22 L 559.81 476.08 L 586.12 450.56 L 614.04 430.62 L 644.34 413.88 L 685.01 386.76 L 712.12 361.24 L 729.67 339.71 L 742.42 320.57 L 757.58 289.47 L 768.74 256.78 L 773.52 232.06 L 775.12 213.72 L 775.12 184.21 L 773.52 167.46 Z"/>
<path fill="#086D41" d="M 262.36 447.37 L 255.98 470.49 L 255.18 519.14 L 259.97 537.48 L 269.54 566.19 L 281.50 590.11 L 295.06 609.25 L 318.18 634.77 L 343.70 654.70 L 377.19 672.25 L 423.44 687.40 L 448.96 702.55 L 464.91 721.69 L 472.09 740.03 L 475.28 761.56 L 475.28 807.02 L 496.81 807.81 L 497.61 654.70 L 488.04 606.86 L 478.47 578.95 L 464.11 551.83 L 448.17 526.32 L 427.43 501.59 L 409.89 485.65 L 397.13 476.08 L 366.83 458.53 L 341.31 448.96 L 314.19 443.38 L 288.68 442.58 L 273.52 444.18 Z"/>
<path fill="#F88F2C" d="M 740.03 456.14 L 712.92 457.74 L 683.41 463.32 L 648.33 475.28 L 629.19 484.85 L 606.86 499.20 L 580.54 521.53 L 559.81 546.25 L 539.07 580.54 L 527.91 611.64 L 523.13 636.36 L 522.33 787.08 L 549.44 759.97 L 579.74 736.84 L 598.88 724.88 L 631.58 707.34 L 657.10 689.00 L 682.62 665.07 L 708.13 632.38 L 727.27 596.49 L 736.04 571.77 L 741.63 548.64 L 744.82 521.53 L 744.82 484.05 L 742.42 458.53 Z"/>
</g>
<text x="940" y="218" text-anchor="middle" fill="#050505" font-family="Arial, Helvetica, sans-serif" font-size="170" font-weight="700" letter-spacing="22">VERDEA</text>
<text x="940" y="325" text-anchor="middle" fill="#8A8A8A" font-family="Arial, Helvetica, sans-serif" font-size="62" font-weight="400" letter-spacing="1.5">Lleva verde a tu vida</text>
</svg>