<?xml version="1.0" encoding="UTF-8"?>
<svg xmlns="http://www.w3.org/2000/svg" viewBox="0 0 1520 440"
 role="img" aria-labelledby="title desc">
<title id="title">VERDEA — lockup horizontal oficial</title>
<desc id="desc">Isotipo de cuatro hojas junto al wordmark VERDEA y el descriptor Lleva verde a tu vida.</desc>
<metadata>Activo maestro oficial. No redibujar, deformar, recolorear, reordenar ni recrear con texto HTML.</metadata>
<g transform="translate(35 20) scale(0.40)">
<path fill="#FECD66" d="M 229.67 164.27 L 226.48 167.46 L 224.08 189.00 L 224.88 214.51 L 229.67 243.22 L 235.25 262.36 L 242.42 279.90 L 252.79 299.84 L 265.55 318.98 L 276.71 332.54 L 295.06 350.88 L 311.00 363.64 L 335.73 378.79 L 386.76 402.71 L 420.26 425.04 L 431.42 434.61 L 450.56 454.55 L 464.11 472.09 L 477.67 493.62 L 479.27 476.87 L 480.86 476.08 L 480.06 468.90 L 484.05 420.26 L 482.46 388.36 L 478.47 365.23 L 470.49 336.52 L 459.33 309.41 L 446.57 285.49 L 429.03 259.97 L 417.07 245.61 L 390.75 220.10 L 362.04 199.36 L 340.51 187.40 L 315.79 177.03 L 287.88 169.06 L 257.58 164.27 Z"/>
<path fill="#32884A" d="M 770.33 163.48 L 751.20 163.48 L 710.53 169.86 L 679.43 179.43 L 654.70 190.59 L 637.96 200.16 L 620.41 212.92 L 618.82 212.12 L 619.62 212.92 L 608.45 222.49 L 606.86 221.69 L 607.66 222.49 L 584.53 245.61 L 583.73 244.82 L 584.53 245.61 L 582.93 247.21 L 581.34 247.21 L 582.14 246.41 L 582.93 248.01 L 574.96 256.78 L 563.00 273.52 L 562.20 272.73 L 563.00 274.32 L 552.63 290.27 L 539.07 318.98 L 526.32 362.84 L 523.13 389.15 L 522.33 531.10 L 523.92 531.10 L 532.70 513.56 L 544.66 495.22 L 559.81 476.08 L 566.19 469.70 L 566.99 470.49 L 566.19 469.70 L 568.58 467.30 L 569.38 468.10 L 568.58 467.30 L 570.97 464.91 L 571.77 465.71 L 571.77 463.32 L 574.16 461.72 L 574.96 462.52 L 574.96 460.93 L 586.12 450.56 L 587.72 451.36 L 586.92 452.15 L 590.11 447.37 L 594.10 444.18 L 596.49 444.18 L 595.69 443.38 L 597.29 441.79 L 598.88 442.58 L 598.09 441.79 L 600.48 439.39 L 602.07 440.19 L 601.28 439.39 L 602.87 437.80 L 604.47 438.60 L 603.67 437.80 L 607.66 434.61 L 610.85 434.61 L 610.05 433.81 L 614.04 430.62 L 644.34 413.88 L 645.93 414.67 L 645.14 413.88 L 653.91 408.29 L 655.50 409.09 L 654.70 408.29 L 668.26 399.52 L 685.01 386.76 L 712.12 361.24 L 729.67 339.71 L 742.42 320.57 L 743.22 321.37 L 742.42 319.78 L 757.58 289.47 L 759.17 289.47 L 758.37 287.08 L 759.97 284.69 L 760.77 286.28 L 759.97 283.09 L 763.96 273.52 L 764.75 275.12 L 763.96 271.13 L 765.55 268.74 L 766.35 269.54 L 765.55 266.35 L 768.74 256.78 L 773.52 232.06 L 774.32 236.04 L 773.52 224.88 L 775.12 213.72 L 775.12 184.21 L 773.52 167.46 Z"/>
<path fill="#086D41" d="M 262.36 447.37 L 258.37 453.75 L 255.98 470.49 L 255.18 519.14 L 255.98 516.75 L 259.97 537.48 L 269.54 566.19 L 281.50 590.11 L 295.06 609.25 L 294.26 610.85 L 293.46 610.05 L 298.25 613.24 L 304.63 621.21 L 303.83 622.01 L 304.63 621.21 L 318.18 634.77 L 317.38 635.57 L 318.18 634.77 L 320.57 637.16 L 319.78 637.96 L 322.17 637.96 L 330.14 645.14 L 330.14 646.73 L 334.13 647.53 L 338.12 650.72 L 337.32 651.52 L 339.71 651.52 L 343.70 654.70 L 342.90 655.50 L 343.70 654.70 L 344.50 656.30 L 345.30 655.50 L 354.86 661.08 L 354.86 662.68 L 356.46 661.88 L 377.19 672.25 L 423.44 687.40 L 437.80 694.58 L 448.96 702.55 L 462.52 717.70 L 461.72 719.30 L 462.52 718.50 L 464.91 721.69 L 472.09 740.03 L 475.28 761.56 L 475.28 807.02 L 496.81 807.81 L 497.61 654.70 L 495.22 641.15 L 496.01 638.76 L 488.04 606.86 L 488.84 602.87 L 488.04 604.47 L 482.46 589.31 L 483.25 586.92 L 481.66 586.92 L 481.66 582.93 L 480.06 582.93 L 480.86 580.54 L 480.06 582.14 L 478.47 578.95 L 479.27 577.35 L 477.67 577.35 L 472.09 565.39 L 472.89 563.00 L 471.29 563.00 L 471.29 559.81 L 468.90 559.01 L 469.70 556.62 L 467.30 555.82 L 464.91 551.83 L 465.71 550.24 L 464.11 550.24 L 462.52 547.05 L 463.32 546.25 L 462.52 547.05 L 460.13 543.06 L 460.93 542.26 L 459.33 542.26 L 459.33 539.07 L 456.14 536.68 L 456.14 534.29 L 452.95 532.70 L 453.75 531.10 L 452.95 531.90 L 448.17 526.32 L 447.37 522.33 L 443.38 519.94 L 444.18 518.34 L 443.38 519.14 L 440.99 516.75 L 441.79 515.95 L 440.99 516.75 L 432.22 507.18 L 433.01 505.58 L 431.42 505.58 L 429.82 503.99 L 430.62 503.19 L 429.82 503.99 L 427.43 501.59 L 428.23 500.80 L 427.43 501.59 L 425.84 500.00 L 426.63 499.20 L 425.84 500.00 L 424.24 498.41 L 425.04 497.61 L 423.44 498.41 L 409.89 485.65 L 397.13 476.08 L 366.83 458.53 L 341.31 448.96 L 314.19 443.38 L 288.68 442.58 L 273.52 444.18 Z"/>
<path fill="#F88F2C" d="M 740.03 456.14 L 712.92 457.74 L 683.41 463.32 L 648.33 475.28 L 629.19 484.85 L 606.86 499.20 L 580.54 521.53 L 579.74 520.73 L 580.54 521.53 L 576.56 525.52 L 575.76 524.72 L 576.56 526.32 L 559.81 546.25 L 558.21 546.25 L 559.01 547.05 L 554.23 554.23 L 552.63 554.23 L 553.43 555.02 L 539.07 580.54 L 534.29 593.30 L 532.70 593.30 L 533.49 595.69 L 527.91 611.64 L 527.11 610.05 L 527.91 614.04 L 523.13 636.36 L 522.33 787.08 L 549.44 759.97 L 556.62 754.39 L 557.42 755.18 L 556.62 754.39 L 566.99 745.61 L 579.74 736.84 L 581.34 737.64 L 580.54 736.84 L 598.88 724.88 L 631.58 707.34 L 657.10 689.00 L 682.62 665.07 L 693.78 652.31 L 708.13 632.38 L 716.91 618.02 L 727.27 596.49 L 736.04 571.77 L 741.63 548.64 L 744.82 521.53 L 744.82 484.05 L 742.42 458.53 Z"/>
</g>
<text x="940" y="218" text-anchor="middle" fill="#050505"
 font-family="Arial, Helvetica, sans-serif" font-size="170"
 font-weight="700" letter-spacing="22">VERDEA</text>
<text x="940" y="325" text-anchor="middle" fill="#8A8A8A"
 font-family="Arial, Helvetica, sans-serif" font-size="62"
 font-weight="400" letter-spacing="1.5">Lleva verde a tu vida</text>
</svg>
