<?xml version="1.0" encoding="UTF-8"?>
<svg xmlns="http://www.w3.org/2000/svg"
     viewBox="0 0 225 108"
     role="img"
     aria-labelledby="verdea-wordmark-title verdea-wordmark-description">
  <title id="verdea-wordmark-title">VERDEA — wordmark oficial</title>
  <desc id="verdea-wordmark-description">
    Nombre VERDEA en mayúsculas con el descriptor “Lleva verde a tu vida”.
  </desc>
  <metadata>
    Activo maestro vectorial trazado desde el wordmark aprobado.
    No cambiar proporciones, espaciado, colores ni descriptor.
  </metadata>
  <g>
    <path fill="#111111" fill-rule="evenodd" d="M 178.00 34.00 L 175.00 37.00 L 175.00 40.00 L 170.00 50.00 L 170.00 53.00 L 168.00 56.00 L 168.00 59.00 L 166.00 61.00 L 166.00 63.00 L 167.00 64.00 L 171.00 64.00 L 173.00 63.00 L 173.00 60.00 L 175.00 58.00 L 184.00 58.00 L 188.00 64.00 L 193.00 64.00 L 193.00 60.00 L 189.00 52.00 L 189.00 49.00 L 186.00 44.00 L 186.00 41.00 L 184.00 38.00 L 184.00 36.00 L 182.00 34.00 Z M 180.00 45.00 L 182.00 51.00 L 181.00 52.00 L 178.00 52.00 L 177.00 50.00 L 178.00 47.00 Z"/>
    <path fill="#111111" fill-rule="evenodd" d="M 141.00 34.00 L 139.00 37.00 L 139.00 62.00 L 140.00 64.00 L 158.00 64.00 L 159.00 63.00 L 159.00 59.00 L 158.00 58.00 L 148.00 58.00 L 146.00 56.00 L 146.00 54.00 L 148.00 52.00 L 153.00 52.00 L 154.00 53.00 L 157.00 52.00 L 157.00 46.00 L 147.00 46.00 L 146.00 45.00 L 146.00 42.00 L 147.00 41.00 L 158.00 41.00 L 159.00 40.00 L 159.00 36.00 L 157.00 34.00 Z"/>
    <path fill="#111111" fill-rule="evenodd" d="M 107.00 34.00 L 105.00 37.00 L 105.00 43.00 L 106.00 44.00 L 106.00 57.00 L 105.00 58.00 L 105.00 63.00 L 106.00 64.00 L 121.00 64.00 L 127.00 60.00 L 131.00 53.00 L 131.00 46.00 L 129.00 43.00 L 129.00 41.00 L 125.00 37.00 L 118.00 34.00 Z M 113.00 41.00 L 119.00 41.00 L 121.00 42.00 L 124.00 46.00 L 124.00 52.00 L 123.00 54.00 L 118.00 58.00 L 113.00 58.00 L 111.00 56.00 L 112.00 55.00 L 112.00 42.00 Z"/>
    <path fill="#111111" fill-rule="evenodd" d="M 77.00 34.00 L 75.00 36.00 L 75.00 63.00 L 76.00 64.00 L 81.00 64.00 L 82.00 62.00 L 81.00 55.00 L 84.00 54.00 L 88.00 61.00 L 91.00 64.00 L 96.00 64.00 L 97.00 62.00 L 92.00 55.00 L 92.00 53.00 L 95.00 50.00 L 96.00 47.00 L 96.00 41.00 L 95.00 39.00 L 92.00 36.00 L 88.00 34.00 Z M 81.00 45.00 L 83.00 41.00 L 87.00 41.00 L 90.00 44.00 L 90.00 45.00 L 87.00 47.00 L 83.00 47.00 Z"/>
    <path fill="#111111" fill-rule="evenodd" d="M 48.00 34.00 L 46.00 36.00 L 46.00 62.00 L 47.00 64.00 L 65.00 64.00 L 66.00 63.00 L 66.00 59.00 L 65.00 58.00 L 54.00 58.00 L 53.00 57.00 L 53.00 54.00 L 54.00 53.00 L 62.00 53.00 L 65.00 51.00 L 65.00 48.00 L 63.00 46.00 L 54.00 46.00 L 53.00 45.00 L 53.00 42.00 L 54.00 41.00 L 64.00 41.00 L 66.00 39.00 L 66.00 36.00 L 64.00 34.00 Z"/>
    <path fill="#111111" fill-rule="evenodd" d="M 13.00 34.00 L 12.00 35.00 L 12.00 38.00 L 14.00 40.00 L 14.00 43.00 L 18.00 51.00 L 21.00 62.00 L 23.00 64.00 L 29.00 64.00 L 33.00 55.00 L 33.00 52.00 L 35.00 49.00 L 35.00 46.00 L 39.00 38.00 L 39.00 35.00 L 38.00 34.00 L 35.00 34.00 L 32.00 36.00 L 27.00 52.00 L 25.00 53.00 L 19.00 35.00 L 17.00 34.00 Z"/>
    <path fill="#707070" fill-rule="evenodd" d="M 136.00 80.00 L 136.00 84.00 L 139.00 88.00 L 142.00 88.00 L 145.00 86.00 L 145.00 82.00 L 144.00 80.00 L 142.00 80.00 L 142.00 84.00 L 141.00 85.00 L 139.00 84.00 L 139.00 81.00 L 138.00 80.00 Z"/>
    <path fill="#707070" fill-rule="evenodd" d="M 119.00 79.00 L 119.00 83.00 L 118.00 84.00 L 118.00 86.00 L 120.00 88.00 L 125.00 87.00 L 125.00 80.00 L 123.00 79.00 Z M 120.00 86.00 L 121.00 85.00 L 122.00 86.00 L 121.00 87.00 Z"/>
    <path fill="#707070" fill-rule="evenodd" d="M 132.00 77.00 L 130.00 79.00 L 131.00 81.00 L 131.00 86.00 L 133.00 88.00 L 134.00 88.00 L 134.00 85.00 L 133.00 84.00 L 133.00 82.00 L 134.00 81.00 L 134.00 78.00 Z"/>
    <path fill="#707070" fill-rule="evenodd" d="M 178.00 80.00 L 176.00 79.00 L 173.00 79.00 L 172.00 80.00 L 172.00 83.00 L 171.00 84.00 L 170.00 83.00 L 170.00 77.00 L 168.00 76.00 L 168.00 78.00 L 167.00 79.00 L 164.00 79.00 L 162.00 81.00 L 160.00 80.00 L 155.00 80.00 L 155.00 81.00 L 153.00 83.00 L 152.00 81.00 L 150.00 80.00 L 150.00 83.00 L 152.00 87.00 L 154.00 87.00 L 155.00 86.00 L 155.00 84.00 L 157.00 82.00 L 158.00 83.00 L 158.00 87.00 L 160.00 87.00 L 162.00 86.00 L 164.00 88.00 L 167.00 88.00 L 170.00 86.00 L 172.00 88.00 L 175.00 88.00 L 176.00 87.00 L 178.00 87.00 Z M 164.00 82.00 L 166.00 81.00 L 168.00 83.00 L 168.00 84.00 L 166.00 86.00 L 164.00 84.00 Z"/>
    <path fill="#707070" fill-rule="evenodd" d="M 112.00 84.00 L 112.00 81.00 L 109.00 78.00 L 108.00 78.00 L 105.00 81.00 L 104.00 81.00 L 103.00 80.00 L 103.00 76.00 L 101.00 76.00 L 101.00 77.00 L 99.00 79.00 L 97.00 79.00 L 96.00 80.00 L 94.00 80.00 L 93.00 79.00 L 91.00 79.00 L 89.00 81.00 L 85.00 79.00 L 83.00 79.00 L 80.00 81.00 L 79.00 80.00 L 77.00 80.00 L 77.00 82.00 L 76.00 83.00 L 75.00 83.00 L 73.00 80.00 L 71.00 80.00 L 71.00 81.00 L 73.00 83.00 L 73.00 85.00 L 74.00 87.00 L 76.00 87.00 L 77.00 85.00 L 79.00 84.00 L 80.00 86.00 L 83.00 88.00 L 86.00 88.00 L 86.00 84.00 L 87.00 83.00 L 88.00 83.00 L 90.00 87.00 L 91.00 87.00 L 91.00 83.00 L 93.00 81.00 L 94.00 82.00 L 94.00 84.00 L 95.00 86.00 L 97.00 88.00 L 100.00 88.00 L 104.00 86.00 L 105.00 86.00 L 107.00 88.00 L 110.00 88.00 Z M 83.00 86.00 L 84.00 85.00 L 85.00 86.00 L 84.00 87.00 Z M 97.00 82.00 L 99.00 81.00 L 101.00 83.00 L 101.00 84.00 L 98.00 86.00 L 97.00 85.00 Z M 83.00 82.00 L 84.00 81.00 L 85.00 83.00 L 84.00 84.00 Z"/>
    <path fill="#707070" fill-rule="evenodd" d="M 29.00 77.00 L 29.00 86.00 L 31.00 88.00 L 36.00 88.00 L 38.00 86.00 L 40.00 86.00 L 41.00 85.00 L 45.00 88.00 L 47.00 88.00 L 49.00 87.00 L 49.00 84.00 L 50.00 83.00 L 52.00 83.00 L 54.00 87.00 L 56.00 87.00 L 56.00 85.00 L 58.00 83.00 L 59.00 84.00 L 59.00 86.00 L 61.00 88.00 L 64.00 88.00 L 66.00 87.00 L 67.00 85.00 L 67.00 82.00 L 66.00 80.00 L 65.00 80.00 L 63.00 78.00 L 59.00 80.00 L 56.00 80.00 L 54.00 82.00 L 52.00 80.00 L 52.00 79.00 L 50.00 80.00 L 48.00 80.00 L 46.00 78.00 L 45.00 78.00 L 41.00 82.00 L 40.00 81.00 L 40.00 76.00 L 38.00 76.00 L 38.00 84.00 L 36.00 86.00 L 35.00 86.00 L 31.00 84.00 L 31.00 76.00 Z M 58.00 83.00 L 59.00 81.00 L 61.00 82.00 L 59.00 84.00 Z"/>
  </g>
</svg>
